<svg id="Layer_1" data-name="Layer 1" xmlns="http://www.w3.org/2000/svg" xmlns:xlink="http://www.w3.org/1999/xlink" viewBox="0 0 1920 1080"><defs><style>.cls-1{mask:url(#mask);filter:url(#luminosity-noclip-2);}.cls-2{mix-blend-mode:multiply;fill:url(#New_Gradient_Swatch_copy_5);}.cls-10,.cls-3{opacity:0.25;}.cls-4{fill:url(#New_Gradient_Swatch_copy_6);}.cls-5,.cls-6,.cls-7,.cls-8{opacity:0.42;}.cls-5{fill:url(#New_Gradient_Swatch_copy_6-2);}.cls-6{fill:url(#New_Gradient_Swatch_copy_6-3);}.cls-7{fill:url(#New_Gradient_Swatch_copy_6-4);}.cls-8{fill:url(#New_Gradient_Swatch_copy_6-5);}.cls-9{mask:url(#mask-2);}.cls-10{fill:url(#New_Gradient_Swatch_copy_6-6);}.cls-11{filter:url(#luminosity-noclip);}</style><filter id="luminosity-noclip" x="0.34" y="-9427.5" width="2041.97" height="32766" filterUnits="userSpaceOnUse" color-interpolation-filters="sRGB"><feFlood flood-color="#fff" result="bg"/><feBlend in="SourceGraphic" in2="bg"/></filter><mask id="mask" x="0.34" y="-9427.5" width="2041.97" height="32766" maskUnits="userSpaceOnUse"><g class="cls-11"/></mask><linearGradient id="New_Gradient_Swatch_copy_5" x1="5320.6" y1="3279.99" x2="5504.88" y2="2965.09" gradientTransform="matrix(-1.16, 0.67, -0.67, -1.17, 9404.1, 1029.21)" gradientUnits="userSpaceOnUse"><stop offset="0" stop-color="#333"/><stop offset="0.33" stop-color="#b3b3b3"/><stop offset="1" stop-color="#fff"/></linearGradient><linearGradient id="New_Gradient_Swatch_copy_6" x1="1619.5" y1="780.97" x2="1726.82" y2="780.97" gradientUnits="userSpaceOnUse"><stop offset="0" stop-color="#97d59a"/><stop offset="0.33" stop-color="#97d59a"/><stop offset="1" stop-color="#97d59a"/></linearGradient><linearGradient id="New_Gradient_Swatch_copy_6-2" x1="1623.92" y1="606.73" x2="1794.37" y2="606.73" xlink:href="#New_Gradient_Swatch_copy_6"/><linearGradient id="New_Gradient_Swatch_copy_6-3" x1="1685.16" y1="714.68" x2="1869.5" y2="714.68" xlink:href="#New_Gradient_Swatch_copy_6"/><linearGradient id="New_Gradient_Swatch_copy_6-4" x1="142.5" y1="109.5" x2="248.5" y2="109.5" xlink:href="#New_Gradient_Swatch_copy_6"/><linearGradient id="New_Gradient_Swatch_copy_6-5" x1="188.5" y1="169" x2="307.5" y2="169" xlink:href="#New_Gradient_Swatch_copy_6"/><filter id="luminosity-noclip-2" x="0.34" y="662.68" width="2041.97" height="593.99" filterUnits="userSpaceOnUse" color-interpolation-filters="sRGB"><feFlood flood-color="#fff" result="bg"/><feBlend in="SourceGraphic" in2="bg"/></filter><mask id="mask-2" x="0.34" y="662.68" width="2041.97" height="593.99" maskUnits="userSpaceOnUse"><g class="cls-1"><path class="cls-2" d="M1575.46,1245.65c18.32.14,443.84,22,452.41,3.8,21.75-46.13,20.71-19.68-15.34-75.13-56.51-86.93-67.15-121.78-379.66-115.13-174.26,3.71-213-74.51-263.52-155.45-160-256.5-313.62-307.51-425.82-156.85C871.25,844,789.51,918.7,502.86,861.74c-243.24-48.34-445,60.15-473.1,79.59-32.22,22.31-30.82,172-28.16,264.2.75,26.2,708.06,33.8,731,34Z"/></g></mask><linearGradient id="New_Gradient_Swatch_copy_6-6" x1="5320.6" y1="3279.99" x2="5504.88" y2="2965.09" gradientTransform="matrix(-1.16, 0.67, -0.67, -1.17, 9404.1, 1029.21)" xlink:href="#New_Gradient_Swatch_copy_6"/></defs><title>bg-1</title><g class="cls-3"><circle class="cls-4" cx="1673.16" cy="780.97" r="53.66"/><circle class="cls-5" cx="1709.15" cy="606.73" r="85.23"/><circle class="cls-6" cx="1777.33" cy="714.68" r="92.17"/></g><g class="cls-3"><rect class="cls-7" x="142.5" y="56.5" width="106" height="106"/><circle class="cls-8" cx="248" cy="169" r="59.5"/></g><g class="cls-9"><path class="cls-10" d="M1575.46,1245.65c18.32.14,443.84,22,452.41,3.8,21.75-46.13,20.71-19.68-15.34-75.13-56.51-86.93-67.15-121.78-379.66-115.13-174.26,3.71-213-74.51-263.52-155.45-160-256.5-313.62-307.51-425.82-156.85C871.25,844,789.51,918.7,502.86,861.74c-243.24-48.34-445,60.15-473.1,79.59-32.22,22.31-30.82,172-28.16,264.2.75,26.2,708.06,33.8,731,34Z"/></g></svg>