<svg id="Layer_1" data-name="Layer 1" xmlns="http://www.w3.org/2000/svg" xmlns:xlink="http://www.w3.org/1999/xlink" viewBox="0 0 1920 1080"><defs><style>.cls-1{mask:url(#mask);filter:url(#luminosity-noclip-5);}.cls-2,.cls-4,.cls-6,.cls-8{mix-blend-mode:multiply;}.cls-2{fill:url(#New_Gradient_Swatch_copy_5);}.cls-3{mask:url(#mask-2);filter:url(#luminosity-noclip-6);}.cls-4{fill:url(#New_Gradient_Swatch_copy_5-2);}.cls-5{mask:url(#mask-3);filter:url(#luminosity-noclip-7);}.cls-6{fill:url(#New_Gradient_Swatch_copy_5-3);}.cls-7{mask:url(#mask-4);filter:url(#luminosity-noclip-8);}.cls-8{fill:url(#New_Gradient_Swatch_copy_5-4);}.cls-9{mask:url(#mask-5);}.cls-10,.cls-12,.cls-13,.cls-17{opacity:0.25;}.cls-10{fill:url(#New_Gradient_Swatch_copy_6);}.cls-11{mask:url(#mask-6);}.cls-12{fill:url(#New_Gradient_Swatch_copy_6-2);}.cls-14,.cls-15,.cls-19{opacity:0.42;}.cls-14{fill:url(#New_Gradient_Swatch_copy_6-3);}.cls-15{fill:url(#New_Gradient_Swatch_copy_6-4);}.cls-16{mask:url(#mask-7);}.cls-17{fill:url(#New_Gradient_Swatch_copy_6-5);}.cls-18{mask:url(#mask-8);}.cls-19{fill:url(#New_Gradient_Swatch_copy_6-6);}.cls-20{filter:url(#luminosity-noclip-4);}.cls-21{filter:url(#luminosity-noclip-3);}.cls-22{filter:url(#luminosity-noclip-2);}.cls-23{filter:url(#luminosity-noclip);}</style><filter id="luminosity-noclip" x="-37.78" y="-6863" width="1448.93" height="32766" filterUnits="userSpaceOnUse" color-interpolation-filters="sRGB"><feFlood flood-color="#fff" result="bg"/><feBlend in="SourceGraphic" in2="bg"/></filter><mask id="mask" x="-37.78" y="-6863" width="1448.93" height="32766" maskUnits="userSpaceOnUse"><g class="cls-23"/></mask><linearGradient id="New_Gradient_Swatch_copy_5" x1="6573.69" y1="-961.89" x2="6707.95" y2="-1191.31" gradientTransform="matrix(-1.15, 0.66, -0.63, -1.1, 7620.89, -4543.08)" gradientUnits="userSpaceOnUse"><stop offset="0" stop-color="#333"/><stop offset="0.33" stop-color="#b3b3b3"/><stop offset="1" stop-color="#fff"/></linearGradient><filter id="luminosity-noclip-2" x="-60.2" y="-6863" width="1001.66" height="32766" filterUnits="userSpaceOnUse" color-interpolation-filters="sRGB"><feFlood flood-color="#fff" result="bg"/><feBlend in="SourceGraphic" in2="bg"/></filter><mask id="mask-2" x="-60.2" y="-6863" width="1001.66" height="32766" maskUnits="userSpaceOnUse"><g class="cls-22"/></mask><linearGradient id="New_Gradient_Swatch_copy_5-2" x1="6468.29" y1="2704.31" x2="6478.78" y2="3281.3" gradientTransform="matrix(-0.48, -0.2, -0.3, 0.71, 4371.98, 350.67)" xlink:href="#New_Gradient_Swatch_copy_5"/><filter id="luminosity-noclip-3" x="-47.74" y="-6863" width="1288.88" height="32766" filterUnits="userSpaceOnUse" color-interpolation-filters="sRGB"><feFlood flood-color="#fff" result="bg"/><feBlend in="SourceGraphic" in2="bg"/></filter><mask id="mask-3" x="-47.74" y="-6863" width="1288.88" height="32766" maskUnits="userSpaceOnUse"><g class="cls-21"/></mask><linearGradient id="New_Gradient_Swatch_copy_5-3" x1="6594.09" y1="2304.35" x2="6604.58" y2="2881.33" gradientTransform="matrix(-0.62, -0.26, -0.39, 0.93, 5582.45, 394.64)" xlink:href="#New_Gradient_Swatch_copy_5"/><filter id="luminosity-noclip-4" x="-168.74" y="-6863" width="1288.88" height="32766" filterUnits="userSpaceOnUse" color-interpolation-filters="sRGB"><feFlood flood-color="#fff" result="bg"/><feBlend in="SourceGraphic" in2="bg"/></filter><mask id="mask-4" x="-168.74" y="-6863" width="1288.88" height="32766" maskUnits="userSpaceOnUse"><g class="cls-20"/></mask><linearGradient id="New_Gradient_Swatch_copy_5-4" x1="7356.06" y1="1411.23" x2="7366.55" y2="1988.22" gradientTransform="matrix(-0.62, -0.26, -0.39, 0.93, 5582.45, 394.64)" xlink:href="#New_Gradient_Swatch_copy_5"/><filter id="luminosity-noclip-5" x="-37.78" y="761.32" width="1448.93" height="405.89" filterUnits="userSpaceOnUse" color-interpolation-filters="sRGB"><feFlood flood-color="#fff" result="bg"/><feBlend in="SourceGraphic" in2="bg"/></filter><mask id="mask-5" x="-37.78" y="761.32" width="1448.93" height="405.89" maskUnits="userSpaceOnUse"><g class="cls-1"><path class="cls-2" d="M1079.34,1160.74c13-.13,314.86,9.81,321.17-2.93,16-32.36,14.94-14-10-52.07-39-59.76-46.17-83.87-268.14-75.39-123.77,4.73-150.34-49.2-185.18-104.87-110.42-176.42-218.88-210-300.41-103.84C584.3,890,525.34,943,322.52,907c-172.1-30.62-316.7,47.31-336.89,61.18-23.15,15.91-24,120-23.25,184.1.22,18.21,502.32,14.78,518.58,14.62Z"/></g></mask><linearGradient id="New_Gradient_Swatch_copy_6" x1="6573.69" y1="-961.89" x2="6707.95" y2="-1191.31" gradientTransform="matrix(-1.15, 0.66, -0.63, -1.1, 7620.89, -4543.08)" gradientUnits="userSpaceOnUse"><stop offset="0" stop-color="#97d59a"/><stop offset="0.33" stop-color="#97d59a"/><stop offset="1" stop-color="#97d59a"/></linearGradient><filter id="luminosity-noclip-6" x="-60.2" y="540.34" width="1001.66" height="621.77" filterUnits="userSpaceOnUse" color-interpolation-filters="sRGB"><feFlood flood-color="#fff" result="bg"/><feBlend in="SourceGraphic" in2="bg"/></filter><mask id="mask-6" x="-60.2" y="540.34" width="1001.66" height="621.77" maskUnits="userSpaceOnUse"><g class="cls-3"><path class="cls-4" d="M66.71,569a54.81,54.81,0,0,0,3.68-6.9c11.16-24.57,36.2-29.8,45.56-8.31,22,50.48,67.14,98.74,141,60.07C370.2,554.65,489.11,529.51,473.68,712s21,315.25,151.41,263.86S748.75,1141,846.91,1125.51c67.16-10.62,117.72,33.72,83.59,35.74-44.37,2.63-93-1.58-115.37-1.58L9.8,1153.62c-38.63-.3-69.8-35.36-70-78.63-.42-93.64,10.65-247.1,23.64-322.67A152.4,152.4,0,0,1-14.79,695.8Z"/></g></mask><linearGradient id="New_Gradient_Swatch_copy_6-2" x1="6468.29" y1="2704.31" x2="6478.78" y2="3281.3" gradientTransform="matrix(-0.48, -0.2, -0.3, 0.71, 4371.98, 350.67)" xlink:href="#New_Gradient_Swatch_copy_6"/><linearGradient id="New_Gradient_Swatch_copy_6-3" x1="1856" y1="106" x2="1962" y2="106" gradientTransform="matrix(1, 0, 0, -1, -271, 212)" xlink:href="#New_Gradient_Swatch_copy_6"/><linearGradient id="New_Gradient_Swatch_copy_6-4" x1="1902" y1="165.5" x2="2021" y2="165.5" gradientTransform="matrix(-1, 0, 0, 1, 3547, 0)" xlink:href="#New_Gradient_Swatch_copy_6"/><filter id="luminosity-noclip-7" x="-47.74" y="260.95" width="1288.88" height="802.61" filterUnits="userSpaceOnUse" color-interpolation-filters="sRGB"><feFlood flood-color="#fff" result="bg"/><feBlend in="SourceGraphic" in2="bg"/></filter><mask id="mask-7" x="-47.74" y="260.95" width="1288.88" height="802.61" maskUnits="userSpaceOnUse"><g class="cls-5"><path class="cls-6" d="M118.41,298.36a69.87,69.87,0,0,0,4.78-9c14.51-31.95,46.77-38.88,58.69-11,28,65.41,85.87,127.8,181.21,77.2C509.16,278,662.35,244.72,641.47,481.63S666.71,890.7,834.91,823.28s158.26,213.75,284.7,193.05c86.51-14.16,151.34,43.11,107.4,45.92-57.13,3.66-119.73-1.53-148.5-1.41L41.92,1057.45c-49.73-.16-89.65-45.51-89.66-101.66,0-121.55,15.08-320.79,32.22-418.95a200.49,200.49,0,0,1,28.33-73.5Z"/></g></mask><linearGradient id="New_Gradient_Swatch_copy_6-5" x1="6594.09" y1="2304.35" x2="6604.58" y2="2881.33" gradientTransform="matrix(-0.62, -0.26, -0.39, 0.93, 5582.45, 394.64)" xlink:href="#New_Gradient_Swatch_copy_6"/><filter id="luminosity-noclip-8" x="-168.74" y="-765.89" width="1288.88" height="802.61" filterUnits="userSpaceOnUse" color-interpolation-filters="sRGB"><feFlood flood-color="#fff" result="bg"/><feBlend in="SourceGraphic" in2="bg"/></filter><mask id="mask-8" x="-168.74" y="-765.89" width="1288.88" height="802.61" maskUnits="userSpaceOnUse"><g class="cls-7"><path class="cls-8" d="M-2.59-728.48a69.87,69.87,0,0,0,4.78-9c14.51-31.95,46.77-38.88,58.69-11,28,65.41,85.87,127.8,181.21,77.2,146.07-77.54,299.26-110.83,278.38,126.08s25.24,409.07,193.44,341.65S872.17,10.19,998.61-10.51C1085.12-24.67,1150,32.6,1106,35.41c-57.13,3.66-119.73-1.53-148.5-1.41L-79.08,30.61C-128.81,30.45-168.73-14.9-168.74-71c0-121.55,15.08-320.79,32.22-418.95a200.38,200.38,0,0,1,28.33-73.49Z"/></g></mask><linearGradient id="New_Gradient_Swatch_copy_6-6" x1="7356.06" y1="1411.23" x2="7366.55" y2="1988.22" gradientTransform="matrix(-0.62, -0.26, -0.39, 0.93, 5582.45, 394.64)" xlink:href="#New_Gradient_Swatch_copy_6"/></defs><title>bg-3</title><g class="cls-9"><path class="cls-10" d="M1079.34,1160.74c13-.13,314.86,9.81,321.17-2.93,16-32.36,14.94-14-10-52.07-39-59.76-46.17-83.87-268.14-75.39-123.77,4.73-150.34-49.2-185.18-104.87-110.42-176.42-218.88-210-300.41-103.84C584.3,890,525.34,943,322.52,907c-172.1-30.62-316.7,47.31-336.89,61.18-23.15,15.91-24,120-23.25,184.1.22,18.21,502.32,14.78,518.58,14.62Z"/></g><g class="cls-11"><path class="cls-12" d="M66.71,569a54.81,54.81,0,0,0,3.68-6.9c11.16-24.57,36.2-29.8,45.56-8.31,22,50.48,67.14,98.74,141,60.07C370.2,554.65,489.11,529.51,473.68,712s21,315.25,151.41,263.86S748.75,1141,846.91,1125.51c67.16-10.62,117.72,33.72,83.59,35.74-44.37,2.63-93-1.58-115.37-1.58L9.8,1153.62c-38.63-.3-69.8-35.36-70-78.63-.42-93.64,10.65-247.1,23.64-322.67A152.4,152.4,0,0,1-14.79,695.8Z"/></g><g class="cls-13"><rect class="cls-14" x="1585" y="53" width="106" height="106" transform="translate(3276 212) rotate(180)"/><circle class="cls-15" cx="1585.5" cy="165.5" r="59.5"/></g><g class="cls-16"><path class="cls-17" d="M118.41,298.36a69.87,69.87,0,0,0,4.78-9c14.51-31.95,46.77-38.88,58.69-11,28,65.41,85.87,127.8,181.21,77.2C509.16,278,662.35,244.72,641.47,481.63S666.71,890.7,834.91,823.28s158.26,213.75,284.7,193.05c86.51-14.16,151.34,43.11,107.4,45.92-57.13,3.66-119.73-1.53-148.5-1.41L41.92,1057.45c-49.73-.16-89.65-45.51-89.66-101.66,0-121.55,15.08-320.79,32.22-418.95a200.49,200.49,0,0,1,28.33-73.5Z"/></g><g class="cls-18"><path class="cls-19" d="M-2.59-728.48a69.87,69.87,0,0,0,4.78-9c14.51-31.95,46.77-38.88,58.69-11,28,65.41,85.87,127.8,181.21,77.2,146.07-77.54,299.26-110.83,278.38,126.08s25.24,409.07,193.44,341.65S872.17,10.19,998.61-10.51C1085.12-24.67,1150,32.6,1106,35.41c-57.13,3.66-119.73-1.53-148.5-1.41L-79.08,30.61C-128.81,30.45-168.73-14.9-168.74-71c0-121.55,15.08-320.79,32.22-418.95a200.38,200.38,0,0,1,28.33-73.49Z"/></g></svg>