<svg id="Layer_1" data-name="Layer 1" xmlns="http://www.w3.org/2000/svg" xmlns:xlink="http://www.w3.org/1999/xlink" viewBox="0 0 1920 1080"><defs><style>.cls-1{mask:url(#mask);filter:url(#luminosity-noclip-3);}.cls-2,.cls-4{mix-blend-mode:multiply;}.cls-2{fill:url(#New_Gradient_Swatch_copy_5);}.cls-3{mask:url(#mask-2);filter:url(#luminosity-noclip-4);}.cls-4{fill:url(#New_Gradient_Swatch_copy_5-2);}.cls-5{mask:url(#mask-3);}.cls-6,.cls-8,.cls-9{opacity:0.25;}.cls-6{fill:url(#New_Gradient_Swatch_copy_6);}.cls-7{mask:url(#mask-4);}.cls-8{fill:url(#New_Gradient_Swatch_copy_6-2);}.cls-10,.cls-11{opacity:0.52;}.cls-10{fill:url(#New_Gradient_Swatch_copy_6-3);}.cls-11{fill:url(#New_Gradient_Swatch_copy_6-4);}.cls-12,.cls-13{opacity:0.42;}.cls-12{fill:url(#New_Gradient_Swatch_copy_6-5);}.cls-13{fill:url(#New_Gradient_Swatch_copy_6-6);}.cls-14{filter:url(#luminosity-noclip-2);}.cls-15{filter:url(#luminosity-noclip);}</style><filter id="luminosity-noclip" x="-66.28" y="-7048.5" width="1448.93" height="32766" filterUnits="userSpaceOnUse" color-interpolation-filters="sRGB"><feFlood flood-color="#fff" result="bg"/><feBlend in="SourceGraphic" in2="bg"/></filter><mask id="mask" x="-66.28" y="-7048.5" width="1448.93" height="32766" maskUnits="userSpaceOnUse"><g class="cls-15"/></mask><linearGradient id="New_Gradient_Swatch_copy_5" x1="1780.48" y1="-1730.36" x2="1914.73" y2="-1959.78" gradientTransform="matrix(-1.15, 0.66, -0.63, -1.1, 1617.05, -2284.96)" gradientUnits="userSpaceOnUse"><stop offset="0" stop-color="#333"/><stop offset="0.33" stop-color="#b3b3b3"/><stop offset="1" stop-color="#fff"/></linearGradient><filter id="luminosity-noclip-2" x="794.08" y="-7048.5" width="1124.86" height="32766" filterUnits="userSpaceOnUse" color-interpolation-filters="sRGB"><feFlood flood-color="#fff" result="bg"/><feBlend in="SourceGraphic" in2="bg"/></filter><mask id="mask-2" x="794.08" y="-7048.5" width="1124.86" height="32766" maskUnits="userSpaceOnUse"><g class="cls-14"/></mask><linearGradient id="New_Gradient_Swatch_copy_5-2" x1="794.08" y1="773.64" x2="1918.93" y2="773.64" gradientTransform="matrix(1, 0, 0, 1, 0, 0)" xlink:href="#New_Gradient_Swatch_copy_5"/><filter id="luminosity-noclip-3" x="-66.28" y="725.97" width="1448.93" height="405.89" filterUnits="userSpaceOnUse" color-interpolation-filters="sRGB"><feFlood flood-color="#fff" result="bg"/><feBlend in="SourceGraphic" in2="bg"/></filter><mask id="mask-3" x="-66.28" y="725.97" width="1448.93" height="405.89" maskUnits="userSpaceOnUse"><g class="cls-1"><path class="cls-2" d="M1050.84,1125.39c13-.13,314.86,9.81,321.17-2.93,16-32.35,14.94-14-10-52.07-39-59.76-46.17-83.86-268.14-75.39-123.77,4.73-150.34-49.2-185.18-104.87-110.42-176.42-218.88-210-300.41-103.84C555.8,854.69,496.84,907.68,294,871.6,121.92,841-22.68,918.92-42.87,932.79c-23.15,15.91-24,120-23.25,184.09.22,18.21,502.32,14.79,518.58,14.62Z"/></g></mask><linearGradient id="New_Gradient_Swatch_copy_6" x1="1780.48" y1="-1730.36" x2="1914.73" y2="-1959.78" gradientTransform="matrix(-1.15, 0.66, -0.63, -1.1, 1617.05, -2284.96)" gradientUnits="userSpaceOnUse"><stop offset="0" stop-color="#97d59a"/><stop offset="0.33" stop-color="#97d59a"/><stop offset="1" stop-color="#97d59a"/></linearGradient><filter id="luminosity-noclip-4" x="794.08" y="410.01" width="1124.86" height="727.26" filterUnits="userSpaceOnUse" color-interpolation-filters="sRGB"><feFlood flood-color="#fff" result="bg"/><feBlend in="SourceGraphic" in2="bg"/></filter><mask id="mask-4" x="794.08" y="410.01" width="1124.86" height="727.26" maskUnits="userSpaceOnUse"><g class="cls-3"><path class="cls-4" d="M1918.93,410c-26.57,9-51,19.87-72.37,32.5-128.12,75.86-129.18,192-188.66,290.94-30.09,50-84.51,100.78-174.08,117.62-55.6,10.45-116.38,6.19-174.22.47-72.72-7.2-145.17-16.55-218.94-18.18s-150.38,5.07-212.12,27.58c-.26.1-33,22.11-33.22,22.33a170.79,170.79,0,0,0-19.8,29.15c-32.79,59.33-40.13,132-21.1,198.45l6.93,24.19,1106.43,2.21Z"/></g></mask><linearGradient id="New_Gradient_Swatch_copy_6-2" x1="794.08" y1="773.64" x2="1918.93" y2="773.64" gradientTransform="matrix(1, 0, 0, 1, 0, 0)" xlink:href="#New_Gradient_Swatch_copy_6"/><linearGradient id="New_Gradient_Swatch_copy_6-3" x1="152.5" y1="203.52" x2="264.54" y2="203.52" gradientTransform="matrix(1, 0, 0, 1, 0, 0)" xlink:href="#New_Gradient_Swatch_copy_6"/><linearGradient id="New_Gradient_Swatch_copy_6-4" x1="208.22" y1="246.36" x2="294.5" y2="246.36" gradientTransform="matrix(1, 0, 0, 1, 0, 0)" xlink:href="#New_Gradient_Swatch_copy_6"/><linearGradient id="New_Gradient_Swatch_copy_6-5" x1="70.5" y1="740.5" x2="176.5" y2="740.5" gradientTransform="matrix(1, 0, 0, 1, 0, 0)" xlink:href="#New_Gradient_Swatch_copy_6"/><linearGradient id="New_Gradient_Swatch_copy_6-6" x1="116.5" y1="800" x2="235.5" y2="800" gradientTransform="matrix(1, 0, 0, 1, 0, 0)" xlink:href="#New_Gradient_Swatch_copy_6"/></defs><title>bg-4</title><g class="cls-5"><path class="cls-6" d="M1050.84,1125.39c13-.13,314.86,9.81,321.17-2.93,16-32.35,14.94-14-10-52.07-39-59.76-46.17-83.86-268.14-75.39-123.77,4.73-150.34-49.2-185.18-104.87-110.42-176.42-218.88-210-300.41-103.84C555.8,854.69,496.84,907.68,294,871.6,121.92,841-22.68,918.92-42.87,932.79c-23.15,15.91-24,120-23.25,184.09.22,18.21,502.32,14.79,518.58,14.62Z"/></g><g class="cls-7"><path class="cls-8" d="M1918.93,410c-26.57,9-51,19.87-72.37,32.5-128.12,75.86-129.18,192-188.66,290.94-30.09,50-84.51,100.78-174.08,117.62-55.6,10.45-116.38,6.19-174.22.47-72.72-7.2-145.17-16.55-218.94-18.18s-150.38,5.07-212.12,27.58c-.26.1-33,22.11-33.22,22.33a170.79,170.79,0,0,0-19.8,29.15c-32.79,59.33-40.13,132-21.1,198.45l6.93,24.19,1106.43,2.21Z"/></g><g class="cls-9"><rect class="cls-10" x="152.5" y="147.5" width="112.04" height="112.04" rx="15"/><rect class="cls-11" x="208.22" y="203.22" width="86.28" height="86.28" rx="15"/></g><g class="cls-9"><rect class="cls-12" x="70.5" y="687.5" width="106" height="106"/><circle class="cls-13" cx="176" cy="800" r="59.5"/></g></svg>